<svg  viewBox="0 0 16 16" fill="none" xmlns="http://www.w3.org/2000/svg">
<path d="M8.25 1.75491V6.25C8.25 6.80228 7.80229 7.25 7.25 7.25H6.25C5.69772 7.25 5.25 7.69772 5.25 8.25V9.25C5.25 9.80228 4.80228 10.25 4.25 10.25H2.16724M10.7334 13.6222C9.90771 14.0244 8.98021 14.25 8 14.25C4.54822 14.25 1.75 11.4518 1.75 8C1.75 4.54822 4.54822 1.75 8 1.75C11.4518 1.75 14.25 4.54822 14.25 8C14.25 8.42808 14.207 8.84611 14.125 9.25M10.7334 13.6222L10.5 13.3888C9.68632 12.528 9.4956 11.2033 10.1182 10.125C10.8776 8.80967 12.5594 8.35902 13.8747 9.11841L14.125 9.25M10.7334 13.6222C12.4548 12.7837 13.7336 11.178 14.125 9.25" stroke="currentColor" stroke-width="1.5" stroke-linecap="round" stroke-linejoin="round"/>
</svg>
